<?xml version="1.0" encoding="utf-8"?>
<!-- Generator: Adobe Illustrator 21.1.0, SVG Export Plug-In . SVG Version: 6.00 Build 0)  -->
<svg version="1.1" id="Layer_1" xmlns="http://www.w3.org/2000/svg" xmlns:xlink="http://www.w3.org/1999/xlink" x="0px" y="0px"
	 width="32px" height="32px" viewBox="0 0 32 32" style="enable-background:new 0 0 32 32;" xml:space="preserve">
<g>
	<path style="fill:#F34A38;" d="M11.2,18.1h5c-0.9,2.5-3.3,4.3-6,4.2c-3.4,0-6.2-2.7-6.3-6.1c-0.1-3.6,2.8-6.6,6.3-6.6
		c1.6,0,3.1,0.6,4.3,1.6c0.3,0.2,0.7,0.2,0.9,0l1.8-1.7c0.3-0.3,0.3-0.7,0-1c-1.8-1.7-4.2-2.8-6.8-2.8C4.8,5.7,0,10.3,0,15.9
		c0,5.7,4.6,10.3,10.2,10.3c5.5,0,9.9-4.3,10.2-9.7c0-0.1,0-2.3,0-2.3h-9.2c-0.4,0-0.7,0.3-0.7,0.7v2.5
		C10.5,17.8,10.8,18.1,11.2,18.1z"/>
	<path style="fill:#F34A38;" d="M28.9,14.5V12c0-0.3-0.3-0.6-0.6-0.6h-2.1c-0.3,0-0.6,0.3-0.6,0.6v2.5h-2.5c-0.3,0-0.6,0.3-0.6,0.6
		v2.1c0,0.3,0.3,0.6,0.6,0.6h2.5v2.5c0,0.3,0.3,0.6,0.6,0.6h2.1c0.3,0,0.6-0.3,0.6-0.6v-2.5h2.5c0.3,0,0.6-0.3,0.6-0.6v-2.1
		c0-0.3-0.3-0.6-0.6-0.6L28.9,14.5L28.9,14.5z"/>
</g>
</svg>
