<svg xmlns="http://www.w3.org/2000/svg" width="300" height="51.92" viewBox="0 0 300 51.92"><title>icon-icodervn</title><g id="Layer_2" data-name="Layer 2"><g id="Layer_1-2" data-name="Layer 1"><path d="M75.72,2.19C74,4.73,60,9,52.49,9S31.7,4.73,29.16,2.19c0,2.54-10.49,12.74-10.49,21.91a20.32,20.32,0,0,0,31,17.28l2.68,7.47,2.73-7.61A20.32,20.32,0,0,0,86.3,24.11C86.3,14.94,75.72,4.73,75.72,2.19ZM38.9,38.68A12.74,12.74,0,1,1,51.64,25.94,12.74,12.74,0,0,1,38.9,38.68Zm27.09,0A12.74,12.74,0,1,1,78.73,25.94,12.74,12.74,0,0,1,66,38.68Z" style="fill:#015eae"/><circle cx="38.9" cy="25.94" r="6.11" style="fill:#015eae"/><circle cx="65.98" cy="25.94" r="6.11" style="fill:#015eae"/><path d="M116.25,10.69a3,3,0,0,1,.86-2.15,3,3,0,0,1,4.28.05,3.1,3.1,0,0,1,.89,2.2,3,3,0,0,1-5.16,2.1A3,3,0,0,1,116.25,10.69Zm.81,32.41h4.46V16.52h-4.46Z" style="fill:#015eae"/><path d="M128.71,34.6V16.37a9,9,0,0,1,2.23-6.26,7.68,7.68,0,0,1,6-2.46H151.8v5.12H137.57q-3.75,0-3.75,3.75V34.19a3.7,3.7,0,0,0,1.09,2.68A3.58,3.58,0,0,0,137.57,38H151.7v5.11H136.51a8,8,0,0,1-4.46-1.52Q128.7,39.36,128.71,34.6Z" style="fill:#015eae"/><path d="M158,22.75q0-5.47,5.92-6.18a5.51,5.51,0,0,0,.61-.05h8.71a8.09,8.09,0,0,1,1.06.1q6,.86,6,6.13V36.58q0,3.64-3.65,5.72a6.85,6.85,0,0,1-3.45.81h-8.31a6.39,6.39,0,0,1-6.63-4.81C157.91,37.21,158,22.75,158,22.75Zm7.62,16h7.2q3.11,0,3.11-3.4V24.12q0-3.2-3.11-3.2h-7.2q-3.22,0-3.22,3.2v11Q162.38,38.7,165.6,38.7Z" style="fill:#015eae"/><path d="M187.51,36.17v-13a6.26,6.26,0,0,1,2-5,7.67,7.67,0,0,1,5.26-1.72h10.36V7.65h4.41v28a8,8,0,0,1-1.9,5.16,5.87,5.87,0,0,1-4.74,2.33h-8.71a6.58,6.58,0,0,1-2.63-.66A6.32,6.32,0,0,1,187.51,36.17Zm6.8,2.53h7.86A2.46,2.46,0,0,0,203.9,38a2.87,2.87,0,0,0,1.18-2.54V23.77q0-2.84-2.4-2.84h-7.86q-2.91,0-2.91,2.94v12A2.61,2.61,0,0,0,194.31,38.7Z" style="fill:#015eae"/><path d="M216.68,36.12V24.22q0-7.7,8.26-7.7h6.58a7.08,7.08,0,0,1,5.12,1.8,6.6,6.6,0,0,1,1.87,5v3.14l-17.42,8.1s-.47,4.1,3.05,4.15h14.68v4.4H223.92a7.27,7.27,0,0,1-5.19-1.92A6.61,6.61,0,0,1,216.68,36.12Zm4.41-6.43,13-6v-.41q0-2.32-2.69-2.32h-7.27q-3,0-3,3.36Z" style="fill:#015eae"/><path d="M245.14,43.1V23.56a12.59,12.59,0,0,1,.1-1.52,6.31,6.31,0,0,1,1.49-3.83,6.79,6.79,0,0,1,3.82-1.59,7.66,7.66,0,0,1,1.17-.1h2.48v4.41H252q-2.46,0-2.46,2.69V43.1Z" style="fill:#015eae"/><path d="M257.19,40a3,3,0,0,1,.89-2.13,2.83,2.83,0,0,1,2.1-.91,3.11,3.11,0,0,1,3.09,3.09,3.06,3.06,0,0,1-5.22,2.15A3.05,3.05,0,0,1,257.19,40Z" style="fill:#015eae"/><path d="M265.56,25.38h3.17l5.37,14.43,5.34-14.43h3.21l-6,16.24a2.62,2.62,0,0,1-5,0Z" style="fill:#015eae"/><path d="M285.35,43.1V29.94q0-4.56,5-4.56H295q5,0,5,4.56V43.1h-2.94V29.5q-.24-1.11-2-1.11h-4.73a2.41,2.41,0,0,0-1.58.4,2,2,0,0,0-.46,1.52V43.1Z" style="fill:#015eae"/><path d="M0,23.75a5.44,5.44,0,0,0,3.39-1.12,5.14,5.14,0,0,0,1.74-2.93,32.65,32.65,0,0,0,.46-6.38q0-4.51.16-5.94a11.25,11.25,0,0,1,.91-3.65,6.55,6.55,0,0,1,1.64-2.2A6.53,6.53,0,0,1,10.78.27,14.61,14.61,0,0,1,14.13,0h1.51V4.24H14.8q-2.81,0-3.73,1t-.92,4.52a77.8,77.8,0,0,1-.3,8.94A10.25,10.25,0,0,1,8.2,23.18,9.83,9.83,0,0,1,4.51,26a8.23,8.23,0,0,1,4.31,3.8q1.34,2.55,1.34,8.36,0,5.27.11,6.27A3.78,3.78,0,0,0,11.36,47a5.71,5.71,0,0,0,3.44.73h.84v4.24H14.13a12.31,12.31,0,0,1-3.84-.43,6.42,6.42,0,0,1-2.86-2A7.27,7.27,0,0,1,6,46a52.51,52.51,0,0,1-.37-7,35.24,35.24,0,0,0-.46-6.73,5.2,5.2,0,0,0-1.74-2.94A5.39,5.39,0,0,0,0,28.15Z" style="fill:#015eae"/><path d="M104.94,23.75v4.4a5.4,5.4,0,0,0-3.39,1.14,5.17,5.17,0,0,0-1.74,2.93,32.87,32.87,0,0,0-.46,6.36q0,4.51-.16,5.94a11.2,11.2,0,0,1-.9,3.66,6,6,0,0,1-4.12,3.45,13.59,13.59,0,0,1-3.35.29H89.3V47.68h.84q2.81,0,3.73-1t.92-4.55q0-6.75.24-8.56a10.75,10.75,0,0,1,1.73-4.8A8.43,8.43,0,0,1,100.43,26,9.12,9.12,0,0,1,96.05,22q-1.27-2.44-1.27-8.25,0-5.27-.13-6.29A3.63,3.63,0,0,0,93.58,5a5.8,5.8,0,0,0-3.44-.72H89.3V0h1.51a12.27,12.27,0,0,1,3.84.43,6.21,6.21,0,0,1,2.86,2A7.38,7.38,0,0,1,99,6a52.27,52.27,0,0,1,.36,7,35.48,35.48,0,0,0,.46,6.71,5.2,5.2,0,0,0,1.74,2.93A5.4,5.4,0,0,0,104.94,23.75Z" style="fill:#015eae"/></g></g></svg>