<svg xmlns="http://www.w3.org/2000/svg" xmlns:xlink="http://www.w3.org/1999/xlink" width="300" height="180" viewBox="0 0 300 180"><svg width="32" height="32" viewBox="0 0 32 32" id="icon-facebook" y="0"><path d="M27.7 0H4.3C1.9 0 0 1.9 0 4.3v23.4C0 30.1 1.9 32 4.3 32h11.5V20.6h-3c-.4 0-.7-.3-.7-.7v-3.7c0-.4.3-.7.7-.7h3v-3.6c0-4.1 2.5-6.4 6.2-6.4h3c.4 0 .7.3.7.7v3.1c0 .4-.3.7-.7.7h-1.9c-2 0-2.4 1-2.4 2.4v3.1h4.4c.4 0 .7.4.7.8l-.4 3.7c0 .4-.3.6-.7.6h-3.9V32h6.9c2.4 0 4.3-1.9 4.3-4.3V4.3C32 1.9 30.1 0 27.7 0z" fill="#475993"></path></svg><svg width="32" height="32" viewBox="0 0 32 32" id="icon-google-plus" y="32"><g fill="#f34a38"><path d="M11.2 18.1h5c-.9 2.5-3.3 4.3-6 4.2-3.4 0-6.2-2.7-6.3-6.1-.1-3.6 2.8-6.6 6.3-6.6 1.6 0 3.1.6 4.3 1.6.3.2.7.2.9 0l1.8-1.7c.3-.3.3-.7 0-1-1.8-1.7-4.2-2.8-6.8-2.8C4.8 5.7 0 10.3 0 15.9c0 5.7 4.6 10.3 10.2 10.3 5.5 0 9.9-4.3 10.2-9.7v-2.3h-9.2c-.4 0-.7.3-.7.7v2.5c0 .4.3.7.7.7zM28.9 14.5V12c0-.3-.3-.6-.6-.6h-2.1c-.3 0-.6.3-.6.6v2.5h-2.5c-.3 0-.6.3-.6.6v2.1c0 .3.3.6.6.6h2.5v2.5c0 .3.3.6.6.6h2.1c.3 0 .6-.3.6-.6v-2.5h2.5c.3 0 .6-.3.6-.6v-2.1c0-.3-.3-.6-.6-.6h-2.5z"></path></g></svg><svg width="300" height="51.92" viewBox="0 0 300 51.92" id="icon-icodervn" y="64"><title>icon-icodervn</title><g data-name="Layer 1" fill="#015eae"><path d="M75.72 2.19C74 4.73 60 9 52.49 9S31.7 4.73 29.16 2.19c0 2.54-10.49 12.74-10.49 21.91a20.32 20.32 0 0 0 31 17.28l2.68 7.47 2.73-7.61A20.32 20.32 0 0 0 86.3 24.11c0-9.17-10.58-19.38-10.58-21.92zM38.9 38.68a12.74 12.74 0 1 1 12.74-12.74A12.74 12.74 0 0 1 38.9 38.68zm27.09 0a12.74 12.74 0 1 1 12.74-12.74A12.74 12.74 0 0 1 66 38.68z"></path><circle cx="38.9" cy="25.94" r="6.11"></circle><circle cx="65.98" cy="25.94" r="6.11"></circle><path d="M116.25 10.69a3 3 0 0 1 .86-2.15 3 3 0 0 1 4.28.05 3.1 3.1 0 0 1 .89 2.2 3 3 0 0 1-5.16 2.1 3 3 0 0 1-.87-2.2zm.81 32.41h4.46V16.52h-4.46zM128.71 34.6V16.37a9 9 0 0 1 2.23-6.26 7.68 7.68 0 0 1 6-2.46h14.86v5.12h-14.23q-3.75 0-3.75 3.75v17.67a3.7 3.7 0 0 0 1.09 2.68 3.58 3.58 0 0 0 2.66 1.13h14.13v5.11h-15.19a8 8 0 0 1-4.46-1.52q-3.35-2.23-3.34-6.99zM158 22.75q0-5.47 5.92-6.18a5.51 5.51 0 0 0 .61-.05h8.71a8.09 8.09 0 0 1 1.06.1q6 .86 6 6.13v13.83q0 3.64-3.65 5.72a6.85 6.85 0 0 1-3.45.81h-8.31a6.39 6.39 0 0 1-6.63-4.81c-.35-1.09-.26-15.55-.26-15.55zm7.62 16h7.2q3.11 0 3.11-3.4V24.12q0-3.2-3.11-3.2h-7.2q-3.22 0-3.22 3.2v11q-.02 3.58 3.2 3.58zM187.51 36.17v-13a6.26 6.26 0 0 1 2-5 7.67 7.67 0 0 1 5.26-1.72h10.36v-8.8h4.41v28a8 8 0 0 1-1.9 5.16 5.87 5.87 0 0 1-4.74 2.33h-8.71a6.58 6.58 0 0 1-2.63-.66 6.32 6.32 0 0 1-4.05-6.31zm6.8 2.53h7.86a2.46 2.46 0 0 0 1.73-.7 2.87 2.87 0 0 0 1.18-2.54V23.77q0-2.84-2.4-2.84h-7.86q-2.91 0-2.91 2.94v12a2.61 2.61 0 0 0 2.4 2.83zM216.68 36.12v-11.9q0-7.7 8.26-7.7h6.58a7.08 7.08 0 0 1 5.12 1.8 6.6 6.6 0 0 1 1.87 5v3.14l-17.42 8.1s-.47 4.1 3.05 4.15h14.68v4.4h-14.9a7.27 7.27 0 0 1-5.19-1.92 6.61 6.61 0 0 1-2.05-5.07zm4.41-6.43l13-6v-.41q0-2.32-2.69-2.32h-7.27q-3 0-3 3.36zM245.14 43.1V23.56a12.59 12.59 0 0 1 .1-1.52 6.31 6.31 0 0 1 1.49-3.83 6.79 6.79 0 0 1 3.82-1.59 7.66 7.66 0 0 1 1.17-.1h2.48v4.41H252q-2.46 0-2.46 2.69V43.1zM257.19 40a3 3 0 0 1 .89-2.13 2.83 2.83 0 0 1 2.1-.91 3.11 3.11 0 0 1 3.09 3.09 3.06 3.06 0 0 1-5.22 2.15 3.05 3.05 0 0 1-.86-2.2zM265.56 25.38h3.17l5.37 14.43 5.34-14.43h3.21l-6 16.24a2.62 2.62 0 0 1-5 0zM285.35 43.1V29.94q0-4.56 5-4.56H295q5 0 5 4.56V43.1h-2.94V29.5q-.24-1.11-2-1.11h-4.73a2.41 2.41 0 0 0-1.58.4 2 2 0 0 0-.46 1.52V43.1zM0 23.75a5.44 5.44 0 0 0 3.39-1.12 5.14 5.14 0 0 0 1.74-2.93 32.65 32.65 0 0 0 .46-6.38q0-4.51.16-5.94a11.25 11.25 0 0 1 .91-3.65 6.55 6.55 0 0 1 1.64-2.2A6.53 6.53 0 0 1 10.78.27 14.61 14.61 0 0 1 14.13 0h1.51v4.24h-.84q-2.81 0-3.73 1t-.92 4.52a77.8 77.8 0 0 1-.3 8.94 10.25 10.25 0 0 1-1.65 4.48A9.83 9.83 0 0 1 4.51 26a8.23 8.23 0 0 1 4.31 3.8q1.34 2.55 1.34 8.36 0 5.27.11 6.27A3.78 3.78 0 0 0 11.36 47a5.71 5.71 0 0 0 3.44.73h.84v4.24h-1.51a12.31 12.31 0 0 1-3.84-.43 6.42 6.42 0 0 1-2.86-2A7.27 7.27 0 0 1 6 46a52.51 52.51 0 0 1-.37-7 35.24 35.24 0 0 0-.46-6.73 5.2 5.2 0 0 0-1.74-2.94A5.39 5.39 0 0 0 0 28.15zM104.94 23.75v4.4a5.4 5.4 0 0 0-3.39 1.14 5.17 5.17 0 0 0-1.74 2.93 32.87 32.87 0 0 0-.46 6.36q0 4.51-.16 5.94a11.2 11.2 0 0 1-.9 3.66 6 6 0 0 1-4.12 3.45 13.59 13.59 0 0 1-3.35.29H89.3v-4.24h.84q2.81 0 3.73-1t.92-4.55q0-6.75.24-8.56a10.75 10.75 0 0 1 1.73-4.8 8.43 8.43 0 0 1 3.67-2.77 9.12 9.12 0 0 1-4.38-4q-1.27-2.44-1.27-8.25 0-5.27-.13-6.29A3.63 3.63 0 0 0 93.58 5a5.8 5.8 0 0 0-3.44-.72h-.84V0h1.51a12.27 12.27 0 0 1 3.84.43 6.21 6.21 0 0 1 2.86 2A7.38 7.38 0 0 1 99 6a52.27 52.27 0 0 1 .36 7 35.48 35.48 0 0 0 .46 6.71 5.2 5.2 0 0 0 1.74 2.93 5.4 5.4 0 0 0 3.38 1.11z"></path></g></svg><svg width="32" height="32" viewBox="0 0 32 32" id="icon-twitter" y="116"><path d="M31.5 5.8c-.7.3-1.4.6-2.2.7.8-.8 1.5-1.8 1.8-2.9.1-.3-.2-.6-.5-.4-1.1.6-2.2 1.1-3.4 1.4H27c-.2 0-.4-.1-.6-.2-1.3-1.1-2.9-1.7-4.6-1.7-.7 0-1.5.1-2.2.3-2.2.7-4 2.5-4.5 4.8-.2.9-.3 1.7-.2 2.5 0 .1 0 .2-.1.2 0 .1-.1.1-.2.1C9.8 10.2 5.4 7.8 2.3 4c-.2-.2-.5-.2-.6 0-.6 1-.9 2.2-.9 3.5 0 1.9.8 3.6 2.1 4.9-.5-.1-1.1-.3-1.6-.6-.2-.1-.5 0-.5.3 0 2.8 1.6 5.3 4 6.4h-.1c-.4 0-.8 0-1.2-.1-.3-.1-.5.2-.4.5.8 2.5 2.9 4.3 5.5 4.7C6.5 25 4 25.8 1.5 25.8H.7c-.2 0-.5.2-.5.4-.1.2.1.5.3.6 2.9 1.7 6.2 2.6 9.5 2.6 2.9 0 5.7-.6 8.1-1.7 2.3-1 4.3-2.5 5.9-4.5 1.6-1.8 2.8-3.8 3.6-6.1.8-2.2 1.2-4.5 1.2-6.7v-.1c0-.4.2-.7.4-.9 1.1-.9 2-1.9 2.7-3 .2-.4-.1-.8-.4-.6z" fill="#76a9ea"></path></svg><svg id="icon-youtube" width="32" height="32" viewBox="0 0 32 32" y="148"><style>.st0{fill:#f61c0d}</style><path class="st0" d="M25.4 4.7H6.6C3 4.7 0 7.7 0 11.3v9.4c0 3.7 3 6.6 6.6 6.6h18.7c3.7 0 6.6-3 6.6-6.6v-9.4c.1-3.6-2.9-6.6-6.5-6.6zm-4.5 11.8l-8.8 4.2c-.2.1-.5-.1-.5-.3v-8.6c0-.3.3-.4.5-.3l8.8 4.4c.2.1.2.4 0 .6z"></path></svg></svg>